<?xml version="1.0" encoding="utf-8"?>
<!-- Generator: Adobe Illustrator 26.3.1, SVG Export Plug-In . SVG Version: 6.00 Build 0)  -->
<svg version="1.1" id="Layer_1" xmlns="http://www.w3.org/2000/svg" xmlns:xlink="http://www.w3.org/1999/xlink" x="0px" y="0px"
	 viewBox="0 0 956.3 295.9" style="enable-background:new 0 0 956.3 295.9;" xml:space="preserve">
<style type="text/css">
	.st0{fill:url(#SVGID_1_);}
	.st1{fill:#0C0D0D;}
</style>
<linearGradient id="SVGID_1_" gradientUnits="userSpaceOnUse" x1="-47.2481" y1="202.228" x2="221.2766" y2="122.1462">
	<stop  offset="0" style="stop-color:#122E18"/>
	<stop  offset="1" style="stop-color:#8BC342"/>
</linearGradient>
<path class="st0" d="M265,211.6c9.6-18.9,15.1-40.2,15.1-62.8C280.1,72,217.6,9.5,140.7,9.5c-12.2,0-24.3,1.6-36,4.7l0,0.1
	c-2.3-1.6-5.1-2.5-8.1-2.5c-8.1,0-14.7,6.6-14.7,14.7c0,8.1,6.6,14.7,14.7,14.7c7.5,0,13.5-5.6,14.5-12.8c9.2-2.2,18.6-3.5,28.2-3.6
	v58H50.1c-2.6-4.2-7.2-7-12.5-7c-8.1,0-14.7,6.6-14.7,14.7c0,8.1,6.6,14.7,14.7,14.7c5.3,0,9.9-2.8,12.5-7h89.2v38.1H36.4
	c-2.6-4.2-7.2-7-12.5-7c-8.1,0-14.7,6.6-14.7,14.7s6.6,14.7,14.7,14.7c5.3,0,9.9-2.8,12.5-7h102.9v45.6H50.1c-2.6-4.2-7.2-7-12.5-7
	c-8.1,0-14.7,6.6-14.7,14.7s6.6,14.7,14.7,14.7c5.3,0,9.9-2.8,12.5-7h89.2v60.5c-7.7-0.1-15.4-0.9-23-2.4
	c-1.3-8.1-8.2-14.3-16.6-14.3c-9.3,0-16.9,7.6-16.9,16.9c0,9.3,7.6,16.9,16.9,16.9c4.6,0,8.8-1.9,11.8-4.9c9.5,2,19.3,3.1,29.2,3.1
	c53.9,0,100.7-30.9,123.9-75.8h0.4V211.6z M264.1,136.2h-40.2c-0.9-13.3-3.1-26.1-6.4-38.1h36.3C259.2,110,262.8,122.8,264.1,136.2z
	 M264.6,151.6c-0.4,16.1-3.7,31.5-9.6,45.6h-36.4c3.6-14.3,5.6-29.7,5.8-45.6H264.6z M245.6,82.8h-33c-8.1-21.2-20-39.2-34.7-52.3
	C206.1,39.4,230,58.2,245.6,82.8z M154.6,29.9C172.9,40.4,188,59.3,198,82.8h-43.4V29.9z M154.6,98.1h49c3.7,12,6,24.8,7,38.1h-56
	V98.1z M154.6,151.6h56.5c-0.2,15.9-2.4,31.3-6.4,45.6h-50.1V151.6z M199.6,212.5c-9.9,25.4-25.7,45.9-45,57v-57H199.6z
	 M180.6,266.3c14.3-13.8,25.7-32.3,33.3-53.8h33.1C232.1,237.4,208.6,256.7,180.6,266.3z"/>
<g>
	<g>
		<path class="st1" d="M420.8,113.1c-3.1,4.9-6.9,9.1-11.6,12.6c-4.7,3.5-10,6.2-16.1,8.1c-6.1,1.9-12.7,2.9-19.7,2.9
			c-6.4,0-12.2-0.9-17.4-2.6c-5.2-1.7-9.6-4.1-13.1-7.2c-8.4-7.4-11.6-17-9.5-29c2.1-11.8,8.7-21.4,19.9-28.9
			c4.7-3.2,10-5.7,15.9-7.4c5.9-1.7,12.1-2.5,18.8-2.5c8.2,0,15.3,1.4,21.2,4.2c5.9,2.8,11,7.3,15.2,13.4l-12.3,5.6
			c-3-4-6.7-7-11.1-9.1c-4.4-2.1-9.7-3.1-16-3.1c-4.6,0-9,0.6-13.2,1.8c-4.2,1.2-8,2.9-11.3,5c-8.2,5.4-13.1,12.3-14.6,20.8
			c-0.7,4-0.6,7.8,0.5,11.1c1,3.4,2.8,6.3,5.4,8.8c2.6,2.5,5.8,4.4,9.8,5.7c4,1.3,8.5,2,13.7,2c7.9,0,14.9-1.6,20.8-4.8
			c5.9-3.2,10.6-7.9,14-14h-34l1.9-10.9h49.1l-0.2,1.1C425.9,102.8,423.8,108.2,420.8,113.1z"/>
		<path class="st1" d="M451,134.6l12.9-72.9h12.1l-10.9,62h56.4l-1.9,10.9H451z"/>
		<path class="st1" d="M634.3,97.9c-2.1,12-8.7,21.7-19.9,29.1c-4.6,3-9.7,5.4-15.5,7.1c-5.8,1.7-11.9,2.6-18.3,2.6
			c-6.4,0-12.2-0.9-17.4-2.6c-5.2-1.7-9.6-4.1-13.1-7.2c-8.5-7.4-11.7-17-9.6-29c2.1-11.7,8.7-21.3,20-28.9
			c4.6-3.1,9.9-5.5,15.7-7.3c5.8-1.7,11.8-2.6,18.2-2.6c6.3,0,12,0.9,17.2,2.6c5.2,1.7,9.6,4.2,13,7.3
			C633.1,76.6,636.3,86.2,634.3,97.9z M621.7,97.9c1.5-8.5-0.9-15.4-7.2-20.8c-2.6-2.2-5.7-3.8-9.5-5c-3.8-1.2-8-1.8-12.6-1.8
			c-5.1,0-9.9,0.7-14.3,2.1c-4.4,1.4-8.4,3.3-11.9,5.8c-3.5,2.5-6.3,5.4-8.6,8.8c-2.3,3.4-3.8,7.1-4.5,11c-0.7,4.1-0.6,7.9,0.4,11.2
			c1,3.4,2.8,6.3,5.4,8.7c2.6,2.4,5.8,4.3,9.8,5.6c4,1.3,8.6,2,13.9,2c5.2,0,10.1-0.7,14.5-2c4.4-1.3,8.4-3.2,11.7-5.6
			c3.4-2.4,6.2-5.3,8.4-8.7C619.5,105.8,620.9,102.1,621.7,97.9z"/>
		<path class="st1" d="M738.4,97c7.8,2.8,10.9,9,9.3,18.4c-1.1,6.3-4.3,11.1-9.4,14.3c-5.2,3.2-12.4,4.8-21.6,4.8h-58.2l12.9-73h59
			c3.8,0,7,0.5,9.8,1.4c2.8,0.9,5,2.3,6.8,4s2.9,3.9,3.5,6.3c0.6,2.5,0.7,5.2,0.2,8.2c-0.6,3.4-1.9,6.4-3.8,8.9
			C744.9,92.9,742.1,95.1,738.4,97z M730.6,121.3c2.7-1.6,4.4-4.1,5-7.6c0.6-3.6,0-6.3-1.8-8.1c-1.8-1.7-5-2.6-9.5-2.6h-48.1
			l-3.6,20.6h46.2C723.9,123.7,727.8,122.9,730.6,121.3z M734.1,89.3c2.6-1.9,4.1-4.3,4.6-7.1c0.5-3-0.1-5.4-1.8-7.1
			c-1.7-1.8-4.3-2.6-7.8-2.6h-47.6l-3.5,19.8h47.1C728.6,92.2,731.6,91.2,734.1,89.3z"/>
		<path class="st1" d="M841.3,134.6l-5.6-16.3h-49.1l-11.4,16.3H762l51.5-73h15.2l25.8,73H841.3z M819.3,72l-24.9,35.3h37.2
			L819.3,72z"/>
		<path class="st1" d="M877.5,134.6l12.9-72.9h12.1l-10.9,62h56.4l-1.9,10.9H877.5z"/>
	</g>
	<g>
		<path class="st1" d="M333.2,192.2l6.4-36.3h6l-6.4,36.3H333.2z"/>
		<path class="st1" d="M389.7,192.2l-22.5-29.8l-5.3,29.8h-6l6.4-36.3h7.5l22.5,29.8l5.3-29.8h6l-6.4,36.3H389.7z"/>
		<path class="st1" d="M437.3,161.3l-5.4,30.9h-6l5.4-30.9h-17.4l1-5.4h40.7l-1,5.4H437.3z"/>
		<path class="st1" d="M460.5,192.2l6.4-36.3h36.6l-1,5.4H472l-1.7,9.4h21.3l-1,5.4h-21.3l-1.9,10.7h32l-1,5.4H460.5z"/>
		<path class="st1" d="M546.8,192.2l-7.4-13.8h-18.4l-2.4,13.8h-6l6.4-36.3h28.6c3.8,0,6.7,1,8.5,3.1c1.8,2,2.4,4.8,1.8,8.4
			c-0.3,1.6-0.8,3-1.5,4.3c-0.7,1.2-1.5,2.3-2.5,3.2s-2.1,1.6-3.4,2.1c-1.2,0.5-2.6,0.9-3.9,1.2l7.2,14.1H546.8z M549.2,171.5
			c1.4-1,2.2-2.4,2.5-4.2c0.7-4-1.4-6-6.5-6h-21.2l-2.1,11.6h21.7C546,172.9,547.8,172.4,549.2,171.5z"/>
		<path class="st1" d="M609.7,166.1c-1.5-2-3.5-3.5-5.9-4.5c-2.4-0.9-5.2-1.4-8.6-1.4c-2.5,0-4.9,0.3-7.1,1
			c-2.2,0.7-4.2,1.6-5.9,2.9c-1.7,1.2-3.1,2.7-4.2,4.3c-1.1,1.7-1.8,3.5-2.2,5.5c-0.4,2-0.3,3.9,0.2,5.6c0.5,1.7,1.4,3.1,2.7,4.3
			c1.3,1.2,2.9,2.1,5,2.8c2,0.7,4.4,1,7,1c3.3,0,6.2-0.5,8.8-1.4c2.6-0.9,5.1-2.5,7.4-4.6l4.7,2.9c-3.2,3.1-6.5,5.3-10.1,6.6
			c-3.5,1.3-7.6,2-12.1,2c-3.2,0-6.1-0.4-8.7-1.3c-2.6-0.9-4.8-2-6.5-3.5c-4.2-3.6-5.8-8.5-4.7-14.4c1-5.9,4.3-10.6,9.9-14.3
			c2.3-1.5,4.9-2.7,7.7-3.6s5.9-1.3,9-1.3c4.5,0,8.3,0.8,11.6,2.4c3.2,1.6,5.8,3.9,7.7,7L609.7,166.1z"/>
		<path class="st1" d="M671.2,174c-1,6-4.3,10.8-9.9,14.4c-2.3,1.5-4.8,2.7-7.7,3.5c-2.9,0.9-5.9,1.3-9.1,1.3s-6.1-0.4-8.7-1.3
			c-2.6-0.9-4.8-2.1-6.5-3.6c-4.2-3.7-5.8-8.5-4.8-14.4c1-5.8,4.3-10.6,10-14.3c2.3-1.5,4.9-2.7,7.8-3.6c2.9-0.9,5.9-1.3,9-1.3
			c3.1,0,6,0.4,8.5,1.3c2.6,0.9,4.7,2.1,6.5,3.6C670.6,163.4,672.2,168.2,671.2,174z M664.9,174c0.7-4.2-0.5-7.7-3.6-10.3
			c-1.3-1.1-2.9-1.9-4.7-2.5c-1.9-0.6-4-0.9-6.3-0.9c-2.5,0-4.9,0.3-7.1,1c-2.2,0.7-4.2,1.6-5.9,2.9c-1.7,1.2-3.1,2.7-4.3,4.4
			c-1.1,1.7-1.9,3.5-2.2,5.5c-0.4,2-0.3,3.9,0.2,5.6c0.5,1.7,1.4,3.1,2.7,4.3c1.3,1.2,2.9,2.1,4.9,2.8c2,0.7,4.3,1,6.9,1
			s5-0.3,7.2-1c2.2-0.7,4.2-1.6,5.8-2.8c1.7-1.2,3.1-2.6,4.2-4.3C663.8,177.9,664.5,176,664.9,174z"/>
		<path class="st1" d="M717,192.2l-22.5-29.8l-5.3,29.8h-6l6.4-36.3h7.5l22.5,29.8l5.3-29.8h6l-6.4,36.3H717z"/>
		<path class="st1" d="M775.4,192.2l-22.5-29.8l-5.3,29.8h-6l6.4-36.3h7.5l22.5,29.8l5.3-29.8h6l-6.4,36.3H775.4z"/>
		<path class="st1" d="M799.9,192.2l6.4-36.3h36.6l-1,5.4h-30.6l-1.7,9.4H831l-1,5.4h-21.3l-1.9,10.7h32l-1,5.4H799.9z"/>
		<path class="st1" d="M890.6,166.1c-1.5-2-3.5-3.5-5.9-4.5c-2.4-0.9-5.2-1.4-8.6-1.4c-2.5,0-4.9,0.3-7.1,1
			c-2.2,0.7-4.2,1.6-5.9,2.9c-1.7,1.2-3.1,2.7-4.2,4.3c-1.1,1.7-1.8,3.5-2.2,5.5c-0.4,2-0.3,3.9,0.2,5.6c0.5,1.7,1.4,3.1,2.7,4.3
			c1.3,1.2,2.9,2.1,5,2.8c2,0.7,4.4,1,7,1c3.3,0,6.2-0.5,8.8-1.4c2.6-0.9,5.1-2.5,7.4-4.6l4.7,2.9c-3.2,3.1-6.5,5.3-10.1,6.6
			c-3.5,1.3-7.6,2-12.1,2c-3.2,0-6.1-0.4-8.7-1.3c-2.6-0.9-4.8-2-6.5-3.5c-4.2-3.6-5.8-8.5-4.7-14.4c1-5.9,4.3-10.6,9.9-14.3
			c2.3-1.5,4.9-2.7,7.7-3.6s5.9-1.3,9-1.3c4.5,0,8.3,0.8,11.6,2.4c3.2,1.6,5.8,3.9,7.7,7L890.6,166.1z"/>
		<path class="st1" d="M927,161.3l-5.4,30.9h-6l5.4-30.9h-17.4l1-5.4h40.7l-1,5.4H927z"/>
	</g>
	<g>
		<path d="M343.8,213.6c0.3,0.1,0.4,0.2,0.4,0.4l-0.3,1.7c-0.1,0.3-0.2,0.5-0.5,0.5h-6.3c-2.1,0-3.2,0.7-3.4,2.1l-0.1,0.4
			c-0.2,1.2,0.1,1.9,1.4,2.5l5.2,2.3c2.4,1.1,3,2.5,2.5,5.2l-0.2,0.9c-0.7,4.2-4.1,5.1-8.4,5.1c-2.1,0-4.3-0.1-6.6-0.5
			c-0.3-0.1-0.3-0.2-0.3-0.5l0.3-1.7c0.1-0.3,0.2-0.4,0.5-0.4h7.6c2,0,3.1-0.6,3.4-2.1l0.1-0.5c0.2-1.3-0.1-2-1.6-2.7L332,224
			c-2.1-0.8-2.5-2.5-2-5.2l0.1-0.6c0.7-4.2,3.9-5,8.3-5C340.7,213.2,341.7,213.3,343.8,213.6z"/>
		<path d="M356.1,219.2c0.3,0,0.4,0.1,0.3,0.4l-2.6,14.5c0,0.3-0.2,0.4-0.5,0.4h-2.5c-0.3,0-0.4-0.1-0.3-0.4l2.6-14.5
			c0-0.3,0.2-0.4,0.5-0.4H356.1z M357.7,214.8c-0.2,1.2-1,1.9-2.3,1.9s-1.9-0.7-1.7-1.9c0.2-1.2,1.1-1.9,2.3-1.9
			S357.9,213.6,357.7,214.8z"/>
		<path d="M378.1,225.7l-1.5,8.5c0,0.3-0.2,0.4-0.5,0.4h-2.5c-0.3,0-0.4-0.1-0.3-0.4l1.4-7.9c0.7-4.1,0.1-4.3-2.4-4.3h-3.1
			l-2.1,12.2c0,0.3-0.2,0.4-0.5,0.4h-2.5c-0.3,0-0.4-0.1-0.3-0.4l2.5-14.2c0.1-0.4,0.2-0.4,0.5-0.4c2.1-0.4,4.5-0.4,6.2-0.4
			C377.8,219.1,379.1,219.8,378.1,225.7z"/>
		<path d="M400.8,219.6c0.3,0,0.5,0.2,0.4,0.6l-2.4,13.6c-0.9,4.8-2.1,6.6-7.7,6.6c-1.4,0-3-0.1-4.4-0.3c-0.2-0.1-0.3-0.2-0.3-0.4
			l0.3-1.6c0.1-0.3,0.2-0.4,0.5-0.4h4.3c2.7,0,3.5-0.7,3.9-2.9l0-0.1c-1.2,0.2-2.3,0.3-3.6,0.3c-5.1,0-6-1.7-4.9-8
			c1.1-6.1,2.6-7.7,8.1-7.7C397.5,219.1,399.5,219.3,400.8,219.6z M394.5,222c-3,0-3.5,1.1-4.2,4.9c-0.7,4-0.5,4.9,2.6,4.9
			c0.9,0,2,0,3-0.2l1.7-9.6H394.5z"/>
		<path d="M415,213.3c0.3,0,0.4,0.1,0.3,0.4l-3.6,20.4c0,0.3-0.2,0.4-0.5,0.4h-2.5c-0.3,0-0.4-0.1-0.3-0.4l3.6-20.4
			c0-0.3,0.2-0.4,0.5-0.4H415z"/>
		<path d="M435.3,226.6l-0.1,0.8c-0.1,0.5-0.3,0.8-1.1,0.8h-8.7c-0.4,2.9,0.1,3.6,2.8,3.6h4.7c0.3,0,0.4,0.1,0.3,0.4l-0.3,1.7
			c-0.1,0.3-0.2,0.4-0.5,0.5c-1.5,0.2-3.2,0.3-5,0.3c-5.3,0-6.3-1.6-5.2-7.8c1.1-6.3,2.6-7.8,7.9-7.8
			C435.3,219.1,436.3,220.6,435.3,226.6z M425.8,225.8h6.3c0.5-3,0-3.8-2.4-3.8C427.1,222,426.4,222.8,425.8,225.8z"/>
		<path d="M452.8,225.1c0.3,0,0.4,0.1,0.4,0.4l-0.4,2.3c0,0.3-0.2,0.4-0.5,0.4h-8c-0.3,0-0.4-0.1-0.3-0.4l0.4-2.3
			c0-0.3,0.2-0.4,0.5-0.4H452.8z"/>
		<path d="M481.4,213.3c0.3,0,0.4,0.1,0.3,0.4l-1.8,10.3c-1.5,8.6-3.6,10.7-10.3,10.7c-6.7,0-8-2.1-6.5-10.7l1.8-10.3
			c0.1-0.3,0.2-0.4,0.5-0.4h2.7c0.3,0,0.4,0.1,0.3,0.4l-1.8,10.3c-1.1,6.1-0.4,7.6,3.5,7.6c3.9,0,5.2-1.5,6.2-7.6l1.8-10.3
			c0.1-0.3,0.2-0.4,0.5-0.4H481.4z"/>
		<path d="M500.3,219.4c0.3,0.1,0.4,0.2,0.3,0.4l-0.3,1.6c0,0.3-0.2,0.4-0.5,0.4h-5c-1.2,0-1.9,0.4-2,1.2l-0.1,0.3
			c-0.1,0.7,0.1,1.2,1.2,1.6l3.4,1.3c2.2,0.9,2.4,2.3,2.1,4.1l-0.1,0.4c-0.6,3.2-2.8,3.9-6.4,3.9c-2.4,0-4.4-0.2-5.3-0.3
			c-0.3,0-0.4-0.2-0.3-0.4l0.3-1.7c0.1-0.3,0.2-0.4,0.5-0.4h5.3c1.8,0,2.4-0.2,2.6-1.2l0-0.3c0.1-0.7-0.1-1.1-1.3-1.6l-3.4-1.4
			c-2-0.8-2.3-2.4-2-4.1l0.1-0.6c0.5-3,3.1-3.7,6.5-3.7C497.3,219.1,498.8,219.1,500.3,219.4z"/>
		<path d="M521.4,226.6l-0.1,0.8c-0.1,0.5-0.3,0.8-1.1,0.8h-8.7c-0.4,2.9,0.1,3.6,2.8,3.6h4.7c0.3,0,0.4,0.1,0.3,0.4l-0.3,1.7
			c-0.1,0.3-0.2,0.4-0.5,0.5c-1.5,0.2-3.2,0.3-5,0.3c-5.3,0-6.3-1.6-5.2-7.8c1.1-6.3,2.6-7.8,7.9-7.8
			C521.5,219.1,522.4,220.6,521.4,226.6z M512,225.8h6.3c0.5-3,0-3.8-2.4-3.8C513.3,222,512.5,222.8,512,225.8z"/>
		<path d="M560.8,213.5c0.3,0.1,0.5,0.2,0.4,0.6l-0.3,1.8c-0.1,0.3-0.2,0.4-0.5,0.4h-5.3c-4.3,0-5.3,1.7-6.4,7.6
			c-1,5.9-0.6,7.7,3.7,7.7h5.3c0.3,0,0.4,0.1,0.3,0.4l-0.3,1.8c-0.1,0.4-0.3,0.6-0.6,0.6c-1.4,0.2-3.2,0.3-5.3,0.3
			c-6.8,0-8.1-2.5-6.7-10.8c1.5-8.3,3.7-10.8,10.5-10.8C557.7,213.2,559.5,213.2,560.8,213.5z"/>
		<path d="M580.5,226.9c-1.1,6.3-2.6,7.8-8.1,7.8c-5.5,0-6.4-1.6-5.3-7.8c1.1-6.3,2.6-7.8,8-7.8
			C580.6,219.1,581.6,220.6,580.5,226.9z M570.4,226.9c-0.7,3.9-0.5,4.9,2.5,4.9s3.5-1,4.2-4.9c0.7-4,0.5-4.9-2.5-4.9
			S571.1,223,570.4,226.9z"/>
		<path d="M602.8,225.7l-1.5,8.5c0,0.3-0.2,0.4-0.5,0.4h-2.5c-0.3,0-0.4-0.1-0.3-0.4l1.4-7.9c0.7-4.1,0.1-4.3-2.4-4.3h-3.1
			l-2.1,12.2c0,0.3-0.2,0.4-0.5,0.4h-2.5c-0.3,0-0.4-0.1-0.3-0.4l2.5-14.2c0.1-0.4,0.2-0.4,0.5-0.4c2.1-0.4,4.5-0.4,6.2-0.4
			C602.6,219.1,603.9,219.8,602.8,225.7z"/>
		<path d="M625.4,225.7l-1.5,8.5c0,0.3-0.2,0.4-0.5,0.4h-2.5c-0.3,0-0.4-0.1-0.3-0.4l1.4-7.9c0.7-4.1,0.1-4.3-2.4-4.3h-3.1
			l-2.1,12.2c0,0.3-0.2,0.4-0.5,0.4h-2.5c-0.3,0-0.4-0.1-0.3-0.4l2.5-14.2c0.1-0.4,0.2-0.4,0.5-0.4c2.1-0.4,4.5-0.4,6.2-0.4
			C625.1,219.1,626.4,219.8,625.4,225.7z"/>
		<path d="M647.3,226.6l-0.1,0.8c-0.1,0.5-0.3,0.8-1.1,0.8h-8.7c-0.4,2.9,0.1,3.6,2.8,3.6h4.7c0.3,0,0.4,0.1,0.3,0.4l-0.3,1.7
			c-0.1,0.3-0.2,0.4-0.5,0.5c-1.5,0.2-3.2,0.3-5,0.3c-5.3,0-6.3-1.6-5.2-7.8c1.1-6.3,2.6-7.8,7.9-7.8
			C647.3,219.1,648.3,220.6,647.3,226.6z M637.8,225.8h6.3c0.5-3,0-3.8-2.4-3.8C639.1,222,638.3,222.8,637.8,225.8z"/>
		<path d="M668,219.4c0.3,0.1,0.4,0.2,0.3,0.5l-0.3,1.7c0,0.3-0.2,0.4-0.5,0.4h-4.3c-2.9,0-3.5,1-4.2,4.9c-0.7,3.9-0.5,4.9,2.4,4.9
			h4.3c0.3,0,0.4,0.1,0.4,0.4l-0.3,1.7c-0.1,0.3-0.2,0.4-0.5,0.5c-1.5,0.3-3.3,0.3-4.4,0.3c-5.6,0-6.4-1.6-5.3-7.8
			c1.1-6.3,2.5-7.8,8-7.8C664.8,219.1,666.6,219.1,668,219.4z"/>
		<path d="M681.8,214.9c0.3-0.1,0.5,0.1,0.4,0.4l-0.7,3.9h2.7c0.3,0,0.4,0.1,0.4,0.4l-0.3,1.8c-0.1,0.3-0.2,0.4-0.5,0.4H681
			l-1.5,8.5c-0.2,1.2,0.1,1.5,1.4,1.5h1.2c0.3,0,0.4,0.1,0.4,0.4l-0.3,1.8c-0.1,0.3-0.2,0.4-0.5,0.5c-0.8,0.1-1.6,0.2-2,0.2
			c-2.1,0-4.3-0.1-3.8-3.4l1.7-9.5h-1.6c-0.3,0-0.4-0.1-0.4-0.4l0.3-1.8c0-0.3,0.2-0.4,0.5-0.4h1.6l0.6-3.2c0-0.3,0.2-0.4,0.5-0.4
			L681.8,214.9z"/>
		<path d="M704.8,226.9c-1.1,6.3-2.6,7.8-8.1,7.8c-5.5,0-6.4-1.6-5.3-7.8c1.1-6.3,2.6-7.8,8-7.8C705,219.1,705.9,220.6,704.8,226.9z
			 M694.8,226.9c-0.7,3.9-0.5,4.9,2.5,4.9s3.5-1,4.2-4.9c0.7-4,0.5-4.9-2.5-4.9S695.5,223,694.8,226.9z"/>
		<path d="M723.3,219.4c0.3,0.1,0.4,0.2,0.3,0.5l-0.3,1.7c-0.1,0.3-0.2,0.4-0.5,0.4h-2.5c-1.6,0-2.2,0.3-2.4,1.5l-1.9,10.7
			c0,0.3-0.2,0.4-0.5,0.4H713c-0.3,0-0.4-0.1-0.3-0.4l2-11.5c0.6-3.3,3.2-3.6,5.3-3.6C720.7,219.1,722.6,219.1,723.3,219.4z"/>
		<path d="M759.1,213.6c0.3,0.1,0.4,0.2,0.4,0.4l-0.3,1.7c-0.1,0.3-0.2,0.5-0.5,0.5h-6.3c-2.1,0-3.2,0.7-3.4,2.1l-0.1,0.4
			c-0.2,1.2,0.1,1.9,1.4,2.5l5.2,2.3c2.4,1.1,3,2.5,2.5,5.2l-0.2,0.9c-0.7,4.2-4.1,5.1-8.4,5.1c-2.1,0-4.3-0.1-6.6-0.5
			c-0.3-0.1-0.3-0.2-0.3-0.5l0.3-1.7c0.1-0.3,0.2-0.4,0.5-0.4h7.6c2,0,3.1-0.6,3.4-2.1l0.1-0.5c0.2-1.3-0.1-2-1.6-2.7l-5.5-2.4
			c-2.1-0.8-2.5-2.5-2-5.2l0.1-0.6c0.7-4.2,3.9-5,8.3-5C756,213.2,757,213.3,759.1,213.6z"/>
		<path d="M780.3,226.8c-1.1,6.3-2.6,8-7.7,8c-1.3,0-2.3,0-3.4-0.2l-0.9,5.1c-0.1,0.3-0.2,0.4-0.5,0.4h-2.5c-0.3,0-0.4-0.1-0.3-0.4
			l3.5-19.6c0.1-0.3,0.3-0.5,0.6-0.6c2.4-0.4,4-0.5,5.9-0.5C780.4,219.1,781.4,220.7,780.3,226.8z M771.4,222l-1.7,9.6
			c0.9,0.1,2.1,0.2,2.9,0.2c3.1,0,3.7-0.9,4.4-4.9c0.7-3.8,0.6-4.9-2.5-4.9H771.4z"/>
		<path d="M802,226.6l-0.1,0.8c-0.1,0.5-0.3,0.8-1.1,0.8h-8.7c-0.4,2.9,0.1,3.6,2.8,3.6h4.7c0.3,0,0.4,0.1,0.3,0.4l-0.3,1.7
			c-0.1,0.3-0.2,0.4-0.5,0.5c-1.5,0.2-3.2,0.3-5,0.3c-5.3,0-6.3-1.6-5.2-7.8c1.1-6.3,2.6-7.8,7.9-7.8
			C802.1,219.1,803,220.6,802,226.6z M792.5,225.8h6.3c0.5-3,0-3.8-2.4-3.8C793.8,222,793.1,222.8,792.5,225.8z"/>
		<path d="M822.7,219.4c0.3,0.1,0.4,0.2,0.3,0.5l-0.3,1.7c0,0.3-0.2,0.4-0.5,0.4h-4.3c-2.9,0-3.5,1-4.2,4.9
			c-0.7,3.9-0.5,4.9,2.4,4.9h4.3c0.3,0,0.4,0.1,0.4,0.4l-0.3,1.7c-0.1,0.3-0.2,0.4-0.5,0.5c-1.5,0.3-3.3,0.3-4.4,0.3
			c-5.6,0-6.4-1.6-5.3-7.8c1.1-6.3,2.5-7.8,8-7.8C819.6,219.1,821.3,219.1,822.7,219.4z"/>
		<path d="M834.9,219.2c0.3,0,0.4,0.1,0.3,0.4l-2.6,14.5c0,0.3-0.2,0.4-0.5,0.4h-2.5c-0.3,0-0.4-0.1-0.3-0.4l2.6-14.5
			c0-0.3,0.2-0.4,0.5-0.4H834.9z M836.4,214.8c-0.2,1.2-1,1.9-2.3,1.9s-1.9-0.7-1.7-1.9c0.2-1.2,1.1-1.9,2.3-1.9
			S836.7,213.6,836.4,214.8z"/>
		<path d="M855.9,223.6l-1.7,9.7c-0.1,0.4-0.2,0.6-0.7,0.8c-1.5,0.4-3.9,0.6-6.3,0.6c-3.8,0-5.7-0.6-5-4.6c0.6-3.5,2.6-4.4,6-4.4h4
			l0.3-1.4c0.3-1.6-0.5-2.2-2.7-2.2h-4.5c-0.3,0-0.4-0.1-0.3-0.4l0.3-1.7c0.1-0.3,0.2-0.4,0.5-0.4c1.7-0.3,3.2-0.4,4.6-0.4
			C855.1,219.1,856.4,220.6,855.9,223.6z M848,228.1c-1.5,0-2.2,0.5-2.4,1.9c-0.3,1.6,0.4,2,2.4,2c0.7,0,2.2-0.1,3.2-0.3l0.6-3.5
			H848z"/>
		<path d="M870.1,213.3c0.3,0,0.4,0.1,0.3,0.4l-3.6,20.4c0,0.3-0.2,0.4-0.5,0.4h-2.5c-0.3,0-0.4-0.1-0.3-0.4l3.6-20.4
			c0-0.3,0.2-0.4,0.5-0.4H870.1z"/>
		<path d="M882.1,219.2c0.3,0,0.4,0.1,0.3,0.4l-2.6,14.5c0,0.3-0.2,0.4-0.5,0.4h-2.5c-0.3,0-0.4-0.1-0.3-0.4l2.6-14.5
			c0-0.3,0.2-0.4,0.5-0.4H882.1z M883.6,214.8c-0.2,1.2-1,1.9-2.3,1.9s-1.9-0.7-1.7-1.9c0.2-1.2,1.1-1.9,2.3-1.9
			S883.8,213.6,883.6,214.8z"/>
		<path d="M901.9,219.4c0.3,0.1,0.4,0.2,0.3,0.4l-0.3,1.6c0,0.3-0.2,0.4-0.5,0.4h-5c-1.2,0-1.9,0.4-2,1.2l-0.1,0.3
			c-0.1,0.7,0.1,1.2,1.2,1.6l3.4,1.3c2.2,0.9,2.4,2.3,2.1,4.1l-0.1,0.4c-0.6,3.2-2.8,3.9-6.4,3.9c-2.4,0-4.4-0.2-5.3-0.3
			c-0.3,0-0.4-0.2-0.3-0.4l0.3-1.7c0.1-0.3,0.2-0.4,0.5-0.4h5.3c1.8,0,2.4-0.2,2.6-1.2l0-0.3c0.1-0.7-0.1-1.1-1.3-1.6l-3.4-1.4
			c-2-0.8-2.3-2.4-2-4.1l0.1-0.6c0.5-3,3.1-3.7,6.5-3.7C898.9,219.1,900.4,219.1,901.9,219.4z"/>
		<path d="M916.4,214.9c0.3-0.1,0.5,0.1,0.4,0.4l-0.7,3.9h2.7c0.3,0,0.4,0.1,0.4,0.4l-0.3,1.8c-0.1,0.3-0.2,0.4-0.5,0.4h-2.7
			l-1.5,8.5c-0.2,1.2,0.1,1.5,1.4,1.5h1.2c0.3,0,0.4,0.1,0.4,0.4l-0.3,1.8c-0.1,0.3-0.2,0.4-0.5,0.5c-0.8,0.1-1.6,0.2-2,0.2
			c-2.1,0-4.3-0.1-3.8-3.4l1.7-9.5h-1.6c-0.3,0-0.4-0.1-0.4-0.4l0.3-1.8c0-0.3,0.2-0.4,0.5-0.4h1.6l0.6-3.2c0-0.3,0.2-0.4,0.5-0.4
			L916.4,214.9z"/>
		<path d="M937.6,219.4c0.3,0.1,0.4,0.2,0.3,0.4l-0.3,1.6c0,0.3-0.2,0.4-0.5,0.4h-5c-1.2,0-1.9,0.4-2,1.2l-0.1,0.3
			c-0.1,0.7,0.1,1.2,1.2,1.6l3.4,1.3c2.2,0.9,2.4,2.3,2.1,4.1l-0.1,0.4c-0.6,3.2-2.8,3.9-6.4,3.9c-2.4,0-4.4-0.2-5.3-0.3
			c-0.3,0-0.4-0.2-0.3-0.4l0.3-1.7c0.1-0.3,0.2-0.4,0.5-0.4h5.3c1.8,0,2.5-0.2,2.6-1.2l0-0.3c0.1-0.7-0.1-1.1-1.3-1.6l-3.4-1.4
			c-2-0.8-2.3-2.4-2-4.1l0.1-0.6c0.5-3,3.1-3.7,6.5-3.7C934.6,219.1,936.1,219.1,937.6,219.4z"/>
	</g>
</g>
</svg>
